<svg width="1200" height="900" viewBox="0 0 1200 900" fill="none" xmlns="http://www.w3.org/2000/svg">
  <rect width="1200" height="900" rx="48" fill="#F8F1E8"/>
  <circle cx="982" cy="214" r="144" fill="#D98A5A" fill-opacity="0.25"/>
  <circle cx="224" cy="146" r="106" fill="#2C6A62" fill-opacity="0.14"/>
  <rect x="160" y="260" width="880" height="468" rx="28" fill="#FFF9F3" stroke="#D9C2AA" stroke-width="8"/>
  <rect x="230" y="336" width="264" height="276" rx="18" fill="#EADBC6"/>
  <rect x="528" y="336" width="442" height="78" rx="16" fill="#9D4E2F" fill-opacity="0.18"/>
  <rect x="528" y="448" width="366" height="42" rx="12" fill="#2C6A62" fill-opacity="0.18"/>
  <rect x="528" y="514" width="404" height="42" rx="12" fill="#2C6A62" fill-opacity="0.12"/>
  <rect x="528" y="580" width="244" height="42" rx="12" fill="#9D4E2F" fill-opacity="0.12"/>
  <circle cx="362" cy="470" r="72" fill="#D98A5A" fill-opacity="0.7"/>
  <path d="M302 560C302 511.399 341.399 472 390 472V472C438.601 472 478 511.399 478 560V612H302V560Z" fill="#2C6A62" fill-opacity="0.72"/>
</svg>
