<svg width="120" height="70" viewBox="0 0 120 70" fill="none" xmlns="http://www.w3.org/2000/svg">
  <path d="M20 35c0-16 12-28 40-28s40 12 40 28-12 28-40 28-40-12-40-28z" fill="#8FA88D"></path>
  <path d="M28 35c0-12 10-22 32-22s32 10 32 22-10 22-32 22-32-10-32-22z" fill="#A7C0A5" opacity="0.7"></path>
  <circle cx="42" cy="35" r="11" fill="#6E9270"></circle>
  <circle cx="60" cy="35" r="11" fill="#6E9270"></circle>
  <circle cx="78" cy="35" r="11" fill="#6E9270"></circle>
  <path d="M42 30c2-2 5-2 6 0M60 30c2-2 5-2 6 0M78 30c2-2 5-2 6 0" stroke="#4A6E48" stroke-width="1.2" opacity="0.5" stroke-linecap="round"></path>
</svg>
