<svg width="480" height="480" viewBox="0 0 480 480" fill="none" xmlns="http://www.w3.org/2000/svg">
  <defs>
    <radialGradient id="ballGreen" cx="38%" cy="35%" r="65%">
      <stop offset="0%" stop-color="#eaf7e2" stop-opacity="0.95" />
      <stop offset="55%" stop-color="#bfe6b2" stop-opacity="0.75" />
      <stop offset="100%" stop-color="#bfe6b2" stop-opacity="0" />
    </radialGradient>
    <radialGradient id="ballPink" cx="38%" cy="35%" r="65%">
      <stop offset="0%" stop-color="#fbeef2" stop-opacity="0.95" />
      <stop offset="55%" stop-color="#f0c9d8" stop-opacity="0.75" />
      <stop offset="100%" stop-color="#f0c9d8" stop-opacity="0" />
    </radialGradient>
    <radialGradient id="ballPeach" cx="38%" cy="35%" r="65%">
      <stop offset="0%" stop-color="#fdf3df" stop-opacity="0.95" />
      <stop offset="55%" stop-color="#f7d68f" stop-opacity="0.75" />
      <stop offset="100%" stop-color="#f7d68f" stop-opacity="0" />
    </radialGradient>
  </defs>

  <circle cx="70" cy="70" r="34" fill="url(#ballGreen)" />
  <circle cx="150" cy="40" r="22" fill="url(#ballPeach)" />
  <circle cx="230" cy="95" r="27" fill="url(#ballPink)" />
  <circle cx="330" cy="55" r="30" fill="url(#ballGreen)" />
  <circle cx="420" cy="110" r="24" fill="url(#ballPink)" />

  <circle cx="60" cy="180" r="26" fill="url(#ballPink)" />
  <circle cx="170" cy="200" r="20" fill="url(#ballGreen)" />
  <circle cx="270" cy="215" r="34" fill="url(#ballPeach)" />
  <circle cx="380" cy="230" r="22" fill="url(#ballGreen)" />

  <circle cx="100" cy="300" r="30" fill="url(#ballPeach)" />
  <circle cx="210" cy="330" r="24" fill="url(#ballPink)" />
  <circle cx="320" cy="315" r="20" fill="url(#ballPink)" />
  <circle cx="435" cy="330" r="28" fill="url(#ballGreen)" />

  <circle cx="55" cy="415" r="22" fill="url(#ballGreen)" />
  <circle cx="150" cy="440" r="28" fill="url(#ballPeach)" />
  <circle cx="265" cy="420" r="20" fill="url(#ballGreen)" />
  <circle cx="365" cy="435" r="26" fill="url(#ballPink)" />
</svg>
