<svg width="120" height="90" viewBox="0 0 120 90" fill="none" xmlns="http://www.w3.org/2000/svg">
  <path d="M12 62c0-26 22-46 48-46s48 20 48 46c0 8-8 14-18 14H30c-10 0-18-6-18-14z" fill="#FFF3DD"></path>
  <path d="M18 60c0-21 19-38 42-38s42 17 42 38c0 5-5 9-12 9H30c-7 0-12-4-12-9z" fill="#FFFAF0" opacity="0.7"></path>
  <path d="M26 22c3-3 7-5 10-3M39 15c3-3 7-4 10-2M54 12c3-2 7-2 10 0M67 15c3-1 7 0 9 2M78 22c3 0 6 2 8 5" stroke="#E0B87E" stroke-width="2.5" stroke-linecap="round"></path>
  <path d="M22 64c8 2 68 2 76 0" stroke="#D9A05C" stroke-width="1.5" stroke-linecap="round" opacity="0.5"></path>
</svg>
