<?xml version="1.0" encoding="UTF-8" standalone="no"?>
<svg
   width="480"
   height="480"
   viewBox="0 0 480 480"
   fill="none"
   version="1.1"
   id="svg19"
   sodipodi:docname="pattern.svg"
   xml:space="preserve"
   inkscape:export-filename="pattern.svg"
   inkscape:export-xdpi="96"
   inkscape:export-ydpi="96"
   inkscape:version="1.4.4 (dcaf3e7, 2026-05-05)"
   xmlns:inkscape="http://www.inkscape.org/namespaces/inkscape"
   xmlns:sodipodi="http://sodipodi.sourceforge.net/DTD/sodipodi-0.dtd"
   xmlns="http://www.w3.org/2000/svg"
   xmlns:svg="http://www.w3.org/2000/svg"><defs
     id="defs19" /><sodipodi:namedview
     id="namedview19"
     pagecolor="#ffffff"
     bordercolor="#000000"
     borderopacity="0.25"
     inkscape:showpageshadow="2"
     inkscape:pageopacity="0.0"
     inkscape:pagecheckerboard="0"
     inkscape:deskcolor="#d1d1d1"
     inkscape:zoom="1.8333333"
     inkscape:cx="193.90909"
     inkscape:cy="234"
     inkscape:window-width="2149"
     inkscape:window-height="1193"
     inkscape:window-x="1086"
     inkscape:window-y="245"
     inkscape:window-maximized="0"
     inkscape:current-layer="svg19" /><g
     transform="matrix(0.66578721,0.04655638,-0.04655638,0.66578721,166.8079,66.826811)"
     id="g2"><circle
       cx="20"
       cy="20"
       r="18"
       fill="none"
       stroke="#4a6e48"
       stroke-width="5"
       opacity="0.45"
       id="circle1" /><circle
       cx="20"
       cy="20"
       r="7"
       fill="#d4a5a7"
       opacity="0.5"
       id="circle2" /></g><g
     transform="translate(380,160) rotate(18)"
     id="g7"><path
       d="M14 0c4 4 4 10 0 14 4-2 9-1 11 3-4 1-8 4-8 8 0-4-4-6-8-6 0 4-2 8-6 8 2-4 1-9-3-11 4-1 8-4 8-8-4 2-9 1-11-3 4-1 8-4 8-8 0 4 4 6 8 6 0-4 2-8 6-8-1 3-3 4-5 5z"
       fill="#7BA37A"
       opacity="0.4"
       id="path6" /></g><g
     transform="matrix(1.3269945,-0.76614026,0.76614026,1.3269945,378.18182,271.3043)"
     id="g14"><rect
       x="0"
       y="0"
       width="2"
       height="46"
       fill="#8a7256"
       opacity="0.4"
       id="rect13" /><rect
       x="7"
       y="0"
       width="2"
       height="46"
       fill="#8a7256"
       opacity="0.4"
       id="rect14" /></g><g
     transform="matrix(-1.517369,-0.21325267,0.21325267,-1.517369,253.78878,236.00944)"
     id="g14-3"><rect
       x="0"
       y="0"
       width="2"
       height="46"
       fill="#8a7256"
       opacity="0.4"
       id="rect13-1" /><rect
       x="7"
       y="0"
       width="2"
       height="46"
       fill="#8a7256"
       opacity="0.4"
       id="rect14-1" /></g><g
     transform="matrix(0.63231099,-0.11149349,0.11149349,0.63231099,340.90715,388.9182)"
     id="g17"><circle
       cx="16"
       cy="16"
       r="14"
       fill="none"
       stroke="#4a6e48"
       stroke-width="4"
       opacity="0.35"
       id="circle16" /><circle
       cx="16"
       cy="16"
       r="6"
       fill="#d4a5a7"
       opacity="0.4"
       id="circle17" /></g><g
     style="opacity:0.354545;fill:none"
     id="g19"
     transform="matrix(0.54951866,-0.25624476,0.25624476,0.54951866,381.58639,408.38569)"><path
       d="m 90,35 c 16,-12 24,-8 26,0 2,8 -10,12 -26,0 z"
       fill="#e8734a"
       opacity="0.7"
       id="path1-0" /><ellipse
       cx="52"
       cy="35"
       rx="42"
       ry="20"
       fill="#e8734a"
       id="ellipse1" /><ellipse
       cx="52"
       cy="33"
       rx="38"
       ry="16"
       fill="#f08c5a"
       id="ellipse2-2" /><circle
       cx="28"
       cy="30"
       r="4"
       fill="#fff8ec"
       id="circle2-4" /><circle
       cx="28"
       cy="30"
       r="2"
       fill="#2d3a2e"
       id="circle3-8" /><path
       d="m 50,20 c 0,6 4,10 8,12"
       stroke="#d4633a"
       stroke-width="1.5"
       stroke-linecap="round"
       opacity="0.5"
       id="path3" /><path
       d="m 54,22 c 0,5 3,8 6,10"
       stroke="#d4633a"
       stroke-width="1.5"
       stroke-linecap="round"
       opacity="0.5"
       id="path4" /></g><g
     style="opacity:0.354545;fill:none"
     id="g19-4"
     transform="matrix(-0.25624476,-0.54951866,0.54951866,-0.25624476,60.558463,125.84169)"><path
       d="m 90,35 c 16,-12 24,-8 26,0 2,8 -10,12 -26,0 z"
       fill="#e8734a"
       opacity="0.7"
       id="path1-0-3" /><ellipse
       cx="52"
       cy="35"
       rx="42"
       ry="20"
       fill="#e8734a"
       id="ellipse1-07" /><ellipse
       cx="52"
       cy="33"
       rx="38"
       ry="16"
       fill="#f08c5a"
       id="ellipse2-2-9" /><circle
       cx="28"
       cy="30"
       r="4"
       fill="#fff8ec"
       id="circle2-4-9" /><circle
       cx="28"
       cy="30"
       r="2"
       fill="#2d3a2e"
       id="circle3-8-9" /><path
       d="m 50,20 c 0,6 4,10 8,12"
       stroke="#d4633a"
       stroke-width="1.5"
       stroke-linecap="round"
       opacity="0.5"
       id="path3-44" /><path
       d="m 54,22 c 0,5 3,8 6,10"
       stroke="#d4633a"
       stroke-width="1.5"
       stroke-linecap="round"
       opacity="0.5"
       id="path4-12" /></g><g
     style="opacity:0.354545;fill:none"
     id="g20"
     transform="matrix(0.60632675,0,0,0.60632675,38.698086,289.88539)"><path
       d="m 16,42 h 88 c 0,0 -4,40 -44,40 C 20,82 16,42 16,42 Z"
       fill="#d4a574"
       id="path1-3" /><path
       d="m 20,44 h 80 C 100,44 96,80 60,80 24,80 20,44 20,44 Z"
       fill="#c49464"
       opacity="0.6"
       id="path2-9" /><ellipse
       cx="60"
       cy="42"
       rx="44"
       ry="12"
       fill="#e0b88a"
       id="ellipse2-0" /><ellipse
       cx="60"
       cy="40"
       rx="38"
       ry="9"
       fill="#fff8ec"
       id="ellipse3" /><ellipse
       cx="48"
       cy="36"
       rx="10"
       ry="6"
       fill="#e8734a"
       opacity="0.8"
       id="ellipse4" /><ellipse
       cx="68"
       cy="38"
       rx="8"
       ry="5"
       fill="#f0a830"
       opacity="0.7"
       id="ellipse5" /><circle
       cx="56"
       cy="34"
       r="4"
       fill="#5f7e60"
       opacity="0.6"
       id="circle5-5" /><path
       d="m 42,32 c 2,-2 6,-3 10,-2"
       stroke="#d4633a"
       stroke-width="1.2"
       stroke-linecap="round"
       opacity="0.5"
       id="path5-2" /></g><g
     style="opacity:0.354545;fill:none"
     id="g21"
     transform="matrix(0.60632675,0,0,0.60632675,153.46324,402.16228)"><path
       d="M 20,35 C 20,19 32,7 60,7 88,7 100,19 100,35 100,51 88,63 60,63 32,63 20,51 20,35 Z"
       fill="#8fa88d"
       id="path1-9" /><path
       d="M 28,35 C 28,23 38,13 60,13 82,13 92,23 92,35 92,47 82,57 60,57 38,57 28,47 28,35 Z"
       fill="#a7c0a5"
       opacity="0.7"
       id="path2-0" /><circle
       cx="42"
       cy="35"
       r="11"
       fill="#6e9270"
       id="circle2-2" /><circle
       cx="60"
       cy="35"
       r="11"
       fill="#6e9270"
       id="circle3-3" /><circle
       cx="78"
       cy="35"
       r="11"
       fill="#6e9270"
       id="circle4-9" /><path
       d="m 42,30 c 2,-2 5,-2 6,0 m 12,0 c 2,-2 5,-2 6,0 m 12,0 c 2,-2 5,-2 6,0"
       stroke="#4a6e48"
       stroke-width="1.2"
       opacity="0.5"
       stroke-linecap="round"
       id="path4-9" /></g><g
     id="g30"
     transform="translate(-20.727273,58.363636)"><g
       style="opacity:0.554545;fill:none"
       id="g22"
       transform="matrix(0.25632292,0,0,0.25632292,248.06516,278.11236)"><path
         d="m 12,62 c 0,-26 22,-46 48,-46 26,0 48,20 48,46 0,8 -8,14 -18,14 H 30 C 20,76 12,70 12,62 Z"
         fill="#fff3dd"
         id="path1-39" /><path
         d="m 18,60 c 0,-21 19,-38 42,-38 23,0 42,17 42,38 0,5 -5,9 -12,9 H 30 C 23,69 18,65 18,60 Z"
         fill="#fffaf0"
         opacity="0.7"
         id="path2-8" /><path
         d="m 26,22 c 3,-3 7,-5 10,-3 m 3,-4 c 3,-3 7,-4 10,-2 m 5,-1 c 3,-2 7,-2 10,0 m 3,3 c 3,-1 7,0 9,2 m 2,5 c 3,0 6,2 8,5"
         stroke="#e0b87e"
         stroke-width="2.5"
         stroke-linecap="round"
         id="path3-6" /><path
         d="m 22,64 c 8,2 68,2 76,0"
         stroke="#d9a05c"
         stroke-width="1.5"
         stroke-linecap="round"
         opacity="0.5"
         id="path4-5" /></g><g
       style="opacity:0.554545;fill:none"
       id="g22-4"
       transform="matrix(0.25632292,0,0,0.25632292,238.19685,270.90262)"><path
         d="m 12,62 c 0,-26 22,-46 48,-46 26,0 48,20 48,46 0,8 -8,14 -18,14 H 30 C 20,76 12,70 12,62 Z"
         fill="#fff3dd"
         id="path1-39-9" /><path
         d="m 18,60 c 0,-21 19,-38 42,-38 23,0 42,17 42,38 0,5 -5,9 -12,9 H 30 C 23,69 18,65 18,60 Z"
         fill="#fffaf0"
         opacity="0.7"
         id="path2-8-1" /><path
         d="m 26,22 c 3,-3 7,-5 10,-3 m 3,-4 c 3,-3 7,-4 10,-2 m 5,-1 c 3,-2 7,-2 10,0 m 3,3 c 3,-1 7,0 9,2 m 2,5 c 3,0 6,2 8,5"
         stroke="#e0b87e"
         stroke-width="2.5"
         stroke-linecap="round"
         id="path3-6-7" /><path
         d="m 22,64 c 8,2 68,2 76,0"
         stroke="#d9a05c"
         stroke-width="1.5"
         stroke-linecap="round"
         opacity="0.5"
         id="path4-5-5" /></g><g
       style="opacity:0.554545;fill:none"
       id="g22-41"
       transform="matrix(0.25632292,0,0,0.25632292,228.19685,263.08444)"><path
         d="m 12,62 c 0,-26 22,-46 48,-46 26,0 48,20 48,46 0,8 -8,14 -18,14 H 30 C 20,76 12,70 12,62 Z"
         fill="#fff3dd"
         id="path1-39-8" /><path
         d="m 18,60 c 0,-21 19,-38 42,-38 23,0 42,17 42,38 0,5 -5,9 -12,9 H 30 C 23,69 18,65 18,60 Z"
         fill="#fffaf0"
         opacity="0.7"
         id="path2-8-8" /><path
         d="m 26,22 c 3,-3 7,-5 10,-3 m 3,-4 c 3,-3 7,-4 10,-2 m 5,-1 c 3,-2 7,-2 10,0 m 3,3 c 3,-1 7,0 9,2 m 2,5 c 3,0 6,2 8,5"
         stroke="#e0b87e"
         stroke-width="2.5"
         stroke-linecap="round"
         id="path3-6-3" /><path
         d="m 22,64 c 8,2 68,2 76,0"
         stroke="#d9a05c"
         stroke-width="1.5"
         stroke-linecap="round"
         opacity="0.5"
         id="path4-5-52" /></g><g
       style="opacity:0.554545;fill:none"
       id="g22-6"
       transform="matrix(0.25632292,0,0,0.25632292,220.19685,257.08444)"><path
         d="m 12,62 c 0,-26 22,-46 48,-46 26,0 48,20 48,46 0,8 -8,14 -18,14 H 30 C 20,76 12,70 12,62 Z"
         fill="#fff3dd"
         id="path1-39-6" /><path
         d="m 18,60 c 0,-21 19,-38 42,-38 23,0 42,17 42,38 0,5 -5,9 -12,9 H 30 C 23,69 18,65 18,60 Z"
         fill="#fffaf0"
         opacity="0.7"
         id="path2-8-7" /><path
         d="m 26,22 c 3,-3 7,-5 10,-3 m 3,-4 c 3,-3 7,-4 10,-2 m 5,-1 c 3,-2 7,-2 10,0 m 3,3 c 3,-1 7,0 9,2 m 2,5 c 3,0 6,2 8,5"
         stroke="#e0b87e"
         stroke-width="2.5"
         stroke-linecap="round"
         id="path3-6-8" /><path
         d="m 22,64 c 8,2 68,2 76,0"
         stroke="#d9a05c"
         stroke-width="1.5"
         stroke-linecap="round"
         opacity="0.5"
         id="path4-5-4" /></g></g><g
     id="g31"
     transform="translate(-54,-1.090909)"><g
       style="opacity:0.354545;fill:none"
       id="g24"
       transform="matrix(0.35064493,0,0,0.35064493,97.704225,186.95002)"><ellipse
         cx="60"
         cy="58"
         rx="32"
         ry="16"
         fill="#f5e6c8"
         id="ellipse1-9" /><ellipse
         cx="60"
         cy="52"
         rx="28"
         ry="12"
         fill="#fff5e0"
         id="ellipse2" /><path
         d="m 32,44 c 0,-6 12,-12 28,-12 16,0 28,6 28,12 0,0 -6,-4 -28,-4 -22,0 -28,4 -28,4 z"
         fill="#e8734a"
         id="path2" /><path
         d="m 38,40 c 0,-4 10,-8 22,-8 12,0 22,4 22,8"
         fill="#f08c5a"
         opacity="0.7"
         id="path3-9" /><path
         d="m 45,38 c 2,-2 8,-4 15,-4 7,0 13,2 15,4"
         stroke="#d4633a"
         stroke-width="1.2"
         stroke-linecap="round"
         opacity="0.4"
         id="path4-1" /></g><g
       style="opacity:0.354545;fill:none"
       id="g24-7"
       transform="matrix(0.35064493,0,0,0.35064493,107.09104,194.59754)"><ellipse
         cx="60"
         cy="58"
         rx="32"
         ry="16"
         fill="#f5e6c8"
         id="ellipse1-9-0" /><ellipse
         cx="60"
         cy="52"
         rx="28"
         ry="12"
         fill="#fff5e0"
         id="ellipse2-8" /><path
         d="m 32,44 c 0,-6 12,-12 28,-12 16,0 28,6 28,12 0,0 -6,-4 -28,-4 -22,0 -28,4 -28,4 z"
         fill="#e8734a"
         id="path2-53" /><path
         d="m 38,40 c 0,-4 10,-8 22,-8 12,0 22,4 22,8"
         fill="#f08c5a"
         opacity="0.7"
         id="path3-9-7" /><path
         d="m 45,38 c 2,-2 8,-4 15,-4 7,0 13,2 15,4"
         stroke="#d4633a"
         stroke-width="1.2"
         stroke-linecap="round"
         opacity="0.4"
         id="path4-1-9" /></g></g><g
     id="g31-2"
     transform="translate(198.2959,76.283886)"><g
       style="opacity:0.354545;fill:none"
       id="g24-6"
       transform="matrix(0.35064493,0,0,0.35064493,97.704225,186.95002)"><ellipse
         cx="60"
         cy="58"
         rx="32"
         ry="16"
         fill="#f5e6c8"
         id="ellipse1-9-7" /><ellipse
         cx="60"
         cy="52"
         rx="28"
         ry="12"
         fill="#fff5e0"
         id="ellipse2-6" /><path
         d="m 32,44 c 0,-6 12,-12 28,-12 16,0 28,6 28,12 0,0 -6,-4 -28,-4 -22,0 -28,4 -28,4 z"
         fill="#e8734a"
         id="path2-34" /><path
         d="m 38,40 c 0,-4 10,-8 22,-8 12,0 22,4 22,8"
         fill="#f08c5a"
         opacity="0.7"
         id="path3-9-1" /><path
         d="m 45,38 c 2,-2 8,-4 15,-4 7,0 13,2 15,4"
         stroke="#d4633a"
         stroke-width="1.2"
         stroke-linecap="round"
         opacity="0.4"
         id="path4-1-95" /></g><g
       style="opacity:0.354545;fill:none"
       id="g24-7-9"
       transform="matrix(0.35064493,0,0,0.35064493,107.09104,194.59754)"><ellipse
         cx="60"
         cy="58"
         rx="32"
         ry="16"
         fill="#f5e6c8"
         id="ellipse1-9-0-8" /><ellipse
         cx="60"
         cy="52"
         rx="28"
         ry="12"
         fill="#fff5e0"
         id="ellipse2-8-8" /><path
         d="m 32,44 c 0,-6 12,-12 28,-12 16,0 28,6 28,12 0,0 -6,-4 -28,-4 -22,0 -28,4 -28,4 z"
         fill="#e8734a"
         id="path2-53-8" /><path
         d="m 38,40 c 0,-4 10,-8 22,-8 12,0 22,4 22,8"
         fill="#f08c5a"
         opacity="0.7"
         id="path3-9-7-7" /><path
         d="m 45,38 c 2,-2 8,-4 15,-4 7,0 13,2 15,4"
         stroke="#d4633a"
         stroke-width="1.2"
         stroke-linecap="round"
         opacity="0.4"
         id="path4-1-9-3" /></g></g><g
     style="opacity:0.354545;fill:none"
     id="g25"
     transform="matrix(0.39024608,0,0,0.39024608,115.37857,128.25632)"><path
       d="m 50,8 38,74 q 2,8 -6,8 H 18 q -8,0 -6,-8 z"
       fill="#fff8ec"
       stroke="#e4d6b8"
       stroke-width="2"
       id="path1-7" /><path
       d="m 50,18 30,60 q 1,6 -4,6 H 24 q -5,0 -4,-6 z"
       fill="#fffdf5"
       id="path2-2" /><rect
       x="26"
       y="58"
       width="48"
       height="26"
       fill="#2d3a2e"
       id="rect2" /><rect
       x="28"
       y="60"
       width="44"
       height="22"
       fill="#3a4d3b"
       opacity="0.65"
       id="rect3-3" /><circle
       cx="38"
       cy="40"
       r="2.2"
       fill="#e4d6b8"
       id="circle3-6" /><circle
       cx="56"
       cy="34"
       r="2.2"
       fill="#e4d6b8"
       id="circle4-5" /><circle
       cx="46"
       cy="50"
       r="2.2"
       fill="#e4d6b8"
       id="circle5-58" /></g><g
     style="opacity:0.354545;fill:none"
     id="g26"
     transform="matrix(0.60632675,0,0,0.60632675,252.03327,73.405388)"><ellipse
       cx="60"
       cy="68"
       rx="48"
       ry="24"
       fill="#d4a574"
       id="ellipse1-7" /><ellipse
       cx="60"
       cy="62"
       rx="42"
       ry="18"
       fill="#fff5e0"
       id="ellipse2-1" /><path
       d="m 36,36 c 2,-8 8,-6 10,0"
       stroke="#8fa88d"
       stroke-width="2.5"
       stroke-linecap="round"
       opacity="0.35"
       id="path2-3" /><path
       d="m 54,32 c 2,-8 8,-6 10,0"
       stroke="#8fa88d"
       stroke-width="2.5"
       stroke-linecap="round"
       opacity="0.35"
       id="path3-8" /><path
       d="m 72,36 c 2,-8 8,-6 10,0"
       stroke="#8fa88d"
       stroke-width="2.5"
       stroke-linecap="round"
       opacity="0.35"
       id="path4-4" /><path
       d="m 38,58 c 4,-4 8,2 12,-2 4,-4 8,2 12,-2"
       stroke="#e8c87a"
       stroke-width="2.5"
       stroke-linecap="round"
       id="path5" /><path
       d="m 44,64 c 4,-4 8,2 12,-2 4,-4 8,2 12,-2"
       stroke="#e8c87a"
       stroke-width="2.5"
       stroke-linecap="round"
       id="path6-8" /><circle
       cx="74"
       cy="56"
       r="8"
       fill="#fff0f0"
       id="circle6" /><path
       d="m 74,50 c 2,2 2,4 0,6 -2,2 -2,4 0,6"
       stroke="#e07070"
       stroke-width="2"
       stroke-linecap="round"
       id="path7" /><ellipse
       cx="44"
       cy="54"
       rx="7"
       ry="6"
       fill="#fffbe8"
       id="ellipse7" /><ellipse
       cx="44"
       cy="54"
       rx="4"
       ry="3.5"
       fill="#f0a830"
       id="ellipse8" /></g><g
     style="opacity:0.354545;fill:none"
     id="g27"
     transform="matrix(0.65656598,0,0,0.65656598,362.0939,38.066349)"><ellipse
       cx="55"
       cy="70"
       rx="38"
       ry="22"
       fill="#3f5d44"
       id="ellipse1-0" /><ellipse
       cx="55"
       cy="62"
       rx="32"
       ry="14"
       fill="#4e704f"
       opacity="0.6"
       id="ellipse2-4" /><path
       d="m 90,56 c 14,-5 25,1 23,9 -2,8 -15,9 -25,4"
       fill="#3f5d44"
       id="path2-6" /><path
       d="M 30,40 C 35,29 48,24 57,27"
       stroke="#3f5d44"
       stroke-width="6"
       stroke-linecap="round"
       fill="none"
       id="path3-0" /><rect
       x="46"
       y="22"
       width="18"
       height="16"
       rx="5"
       fill="#3f5d44"
       id="rect3-32" /><circle
       cx="55"
       cy="20"
       r="4"
       fill="#3f5d44"
       id="circle3-69" /></g><g
     style="opacity:0.640909;fill:none"
     id="g28"
     transform="matrix(0.23391948,0.25527833,-0.25527833,0.23391948,69.676147,402.27761)"><rect
       x="28"
       y="10"
       width="4"
       height="102"
       rx="2"
       fill="#b98655"
       id="rect1" /><circle
       cx="30"
       cy="26"
       r="16"
       fill="#f3c7d1"
       id="circle1-3" /><circle
       cx="30"
       cy="60"
       r="16"
       fill="#fff8ec"
       id="circle2-8" /><circle
       cx="30"
       cy="94"
       r="16"
       fill="#8fa88d"
       id="circle3" /><circle
       cx="30"
       cy="26"
       r="16"
       fill="none"
       stroke="#e0aab8"
       stroke-width="1"
       opacity="0.6"
       id="circle4" /><circle
       cx="30"
       cy="60"
       r="16"
       fill="none"
       stroke="#e4d6b8"
       stroke-width="1"
       opacity="0.6"
       id="circle5" /><circle
       cx="30"
       cy="94"
       r="16"
       fill="none"
       stroke="#6e9270"
       stroke-width="1"
       opacity="0.6"
       id="circle6-1" /></g><g
     style="opacity:0.640909;fill:none"
     id="g28-6"
     transform="matrix(0.23391948,0.25527833,-0.25527833,0.23391948,191.69057,211.24446)"><rect
       x="28"
       y="10"
       width="4"
       height="102"
       rx="2"
       fill="#b98655"
       id="rect1-4" /><circle
       cx="30"
       cy="26"
       r="16"
       fill="#f3c7d1"
       id="circle1-3-4" /><circle
       cx="30"
       cy="60"
       r="16"
       fill="#fff8ec"
       id="circle2-8-4" /><circle
       cx="30"
       cy="94"
       r="16"
       fill="#8fa88d"
       id="circle3-5" /><circle
       cx="30"
       cy="26"
       r="16"
       fill="none"
       stroke="#e0aab8"
       stroke-width="1"
       opacity="0.6"
       id="circle4-7" /><circle
       cx="30"
       cy="60"
       r="16"
       fill="none"
       stroke="#e4d6b8"
       stroke-width="1"
       opacity="0.6"
       id="circle5-6" /><circle
       cx="30"
       cy="94"
       r="16"
       fill="none"
       stroke="#6e9270"
       stroke-width="1"
       opacity="0.6"
       id="circle6-1-7" /></g><g
     style="opacity:0.354545;fill:none"
     id="g29"
     transform="matrix(0.42450857,0,0,0.42450857,309.59416,198.40318)"><path
       d="M 30,15 C 55,15 75,35 75,60 75,70 67,78 57,78 51,78 48,72 51,67 59,53 53,35 37,29 27,25 19,31 19,41 19,47 11,49 8,43 2,32 10,15 30,15 Z"
       fill="#e8734a"
       id="path1" /><path
       d="m 35,20 c 18,2 32,18 32,36 0,6 -4,10 -9,10"
       stroke="#f0a830"
       stroke-width="3"
       stroke-linecap="round"
       fill="none"
       opacity="0.6"
       id="path2-5" /><path
       d="m 30,26 c 1,3 1,6 0,9 M 40,24 c 1,3 1,6 0,9"
       stroke="#fff3dd"
       stroke-width="2"
       stroke-linecap="round"
       opacity="0.5"
       id="path3-4" /></g></svg>
