<svg width="480" height="480" viewBox="0 0 480 480" fill="none" xmlns="http://www.w3.org/2000/svg">
  <g transform="translate(40,50) rotate(-8)">
    <path d="M20 0 L38 34 Q40 40 34 40 L6 40 Q0 40 2 34 Z" fill="#4A6E48" opacity="0.4"></path>
    <rect x="9" y="24" width="22" height="10" fill="#4A6E48" opacity="0.7"></rect>
  </g>
  <g transform="translate(180,30) rotate(4)">
    <circle cx="20" cy="20" r="18" fill="none" stroke="#4A6E48" stroke-width="5" opacity="0.45"></circle>
    <circle cx="20" cy="20" r="7" fill="#D4A5A7" opacity="0.5"></circle>
  </g>
  <g transform="translate(330,60) rotate(-6)">
    <ellipse cx="24" cy="16" rx="22" ry="10" fill="#C9B396" opacity="0.4"></ellipse>
    <path d="M6 10c0-5 8-9 18-9s18 4 18 9c0 0-4-3-18-3s-18 3-18 3z" fill="#D4A5A7" opacity="0.5"></path>
  </g>
  <g transform="translate(90,150) rotate(10)">
    <rect x="9" y="0" width="2" height="46" fill="#8A7256" opacity="0.4"></rect>
    <circle cx="10" cy="8" r="7" fill="#D4A5A7" opacity="0.45"></circle>
    <circle cx="10" cy="24" r="7" fill="#C9B396" opacity="0.35"></circle>
    <circle cx="10" cy="40" r="7" fill="#4A6E48" opacity="0.4"></circle>
  </g>
  <g transform="translate(250,150) rotate(-4)">
    <path d="M0 24c0-13 11-22 24-22s24 9 24 22c0 5-5 8-11 8H11c-6 0-11-3-11-8z" fill="#C9B396" opacity="0.4"></path>
  </g>
  <g transform="translate(380,160) rotate(18)">
    <path d="M14 0c4 4 4 10 0 14 4-2 9-1 11 3-4 1-8 4-8 8 0-4-4-6-8-6 0 4-2 8-6 8 2-4 1-9-3-11 4-1 8-4 8-8-4 2-9 1-11-3 4-1 8-4 8-8 0 4 4 6 8 6 0-4 2-8 6-8-1 3-3 4-5 5z" fill="#7BA37A" opacity="0.4"></path>
  </g>
  <g transform="translate(40,260)">
    <circle cx="0" cy="0" r="7" fill="#D4A5A7" opacity="0.4"></circle>
    <circle cx="12" cy="-4" r="7" fill="#D4A5A7" opacity="0.35"></circle>
    <circle cx="6" cy="10" r="7" fill="#D4A5A7" opacity="0.4"></circle>
    <circle cx="-10" cy="4" r="7" fill="#D4A5A7" opacity="0.35"></circle>
    <circle cx="4" cy="-14" r="7" fill="#D4A5A7" opacity="0.35"></circle>
  </g>
  <g transform="translate(150,260) rotate(-6)">
    <ellipse cx="20" cy="20" rx="20" ry="12" fill="#4A6E48" opacity="0.4"></ellipse>
    <path d="M38 12c8-2 13 2 12 6s-8 5-13 2" fill="#4A6E48" opacity="0.4"></path>
    <rect x="15" y="4" width="10" height="8" rx="2" fill="#4A6E48" opacity="0.45"></rect>
  </g>
  <g transform="translate(280,260) rotate(12)">
    <path d="M0 6c12 0 22 10 22 22 0 5-4 9-9 9-3 0-4-3-3-6 4-7 1-16-7-19-5-2-9 1-9 6 0 3-4 4-5 1-3-6 1-13 11-13z" fill="#7BA37A" opacity="0.4"></path>
  </g>
  <g transform="translate(370,270) rotate(-30)">
    <rect x="0" y="0" width="2" height="46" fill="#8A7256" opacity="0.4"></rect>
    <rect x="7" y="0" width="2" height="46" fill="#8A7256" opacity="0.4"></rect>
  </g>
  <g transform="translate(60,370) rotate(6)">
    <path d="M0 12c0-7 6-12 18-12s18 5 18 12-6 12-18 12-18-5-18-12z" fill="#7BA37A" opacity="0.35"></path>
    <circle cx="12" cy="12" r="5" fill="#4A6E48" opacity="0.4"></circle>
    <circle cx="24" cy="12" r="5" fill="#4A6E48" opacity="0.4"></circle>
  </g>
  <g transform="translate(200,380) rotate(15)">
    <path d="M18 0 L34 30 Q36 36 30 36 L6 36 Q0 36 2 30 Z" fill="#C9B396" opacity="0.4"></path>
    <rect x="8" y="21" width="20" height="9" fill="#8A7256" opacity="0.5"></rect>
  </g>
  <g transform="translate(340,390) rotate(-10)">
    <circle cx="16" cy="16" r="14" fill="none" stroke="#4A6E48" stroke-width="4" opacity="0.35"></circle>
    <circle cx="16" cy="16" r="6" fill="#D4A5A7" opacity="0.4"></circle>
  </g>
  <g transform="translate(420,60) rotate(-15)">
    <path d="M0 10c8-8 20-8 26 0-6 8-18 8-26 0z" fill="#D4A5A7" opacity="0.4"></path>
  </g>
  <g transform="translate(430,340) rotate(20)">
    <path d="M14 0c4 4 4 10 0 14 4-2 9-1 11 3-4 1-8 4-8 8 0-4-4-6-8-6 0 4-2 8-6 8 2-4 1-9-3-11 4-1 8-4 8-8-4 2-9 1-11-3 4-1 8-4 8-8 0 4 4 6 8 6 0-4 2-8 6-8-1 3-3 4-5 5z" fill="#C9B396" opacity="0.35"></path>
  </g>
</svg>
