<svg width="100" height="100" viewBox="0 0 100 100" fill="none" xmlns="http://www.w3.org/2000/svg">
  <path d="M30 15c25 0 45 20 45 45 0 10-8 18-18 18-6 0-9-6-6-11 8-14 2-32-14-38-10-4-18 2-18 12 0 6-8 8-11 2-6-11 2-28 22-28z" fill="#E8734A"></path>
  <path d="M35 20c18 2 32 18 32 36 0 6-4 10-9 10" stroke="#F0A830" stroke-width="3" stroke-linecap="round" fill="none" opacity="0.6"></path>
  <path d="M30 26c1 3 1 6 0 9M40 24c1 3 1 6 0 9" stroke="#FFF3DD" stroke-width="2" stroke-linecap="round" opacity="0.5"></path>
</svg>
